<?xml version="1.0" standalone="no"?>
<!DOCTYPE svg PUBLIC "-//W3C//DTD SVG 20010904//EN"
 "http://www.w3.org/TR/2001/REC-SVG-20010904/DTD/svg10.dtd">
<svg version="1.0" xmlns="http://www.w3.org/2000/svg"
 width="133.000000pt" height="103.000000pt" viewBox="0 0 133.000000 103.000000"
 preserveAspectRatio="xMidYMid meet">

<g transform="translate(0.000000,103.000000) scale(0.100000,-0.100000)"
fill="#000000" stroke="none">
<path d="M0 933 c0 -69 9 -145 31 -253 25 -130 51 -294 84 -537 l6 -42 -60 -7
-61 -7 0 -45 0 -45 128 9 c151 10 341 10 834 -1 l368 -8 0 516 0 517 -665 0
-665 0 0 -97z m168 13 c20 -12 71 -38 112 -56 41 -18 86 -40 98 -48 16 -10 43
-15 80 -13 32 1 87 -3 124 -8 44 -8 89 -8 133 -2 50 7 77 6 113 -4 65 -20 157
-20 217 -3 28 9 99 34 158 58 60 23 111 40 113 37 7 -7 -26 -69 -75 -142 -38
-55 -55 -105 -31 -90 6 3 10 2 10 -4 0 -5 -9 -12 -19 -16 -11 -3 -18 -12 -15
-19 3 -7 -2 -16 -10 -19 -9 -4 -16 -13 -16 -22 0 -8 -9 -24 -20 -35 -18 -18
-20 -29 -15 -78 2 -31 10 -108 16 -171 12 -124 2 -196 -30 -203 -9 -3 -213 -5
-453 -7 l-436 -2 -13 56 c-10 43 -10 76 -1 148 6 51 14 126 18 167 8 89 31
153 85 236 21 33 39 67 39 75 0 8 -7 1 -16 -16 -8 -16 -27 -45 -43 -64 l-28
-35 -29 45 c-15 24 -27 49 -26 56 1 6 -7 18 -19 26 -12 9 -18 20 -15 26 4 6
-4 32 -17 58 -28 55 -41 93 -32 93 3 0 22 -11 43 -24z"/>
<path d="M300 553 c0 -17 46 -53 68 -53 28 0 38 18 20 36 -17 17 -88 31 -88
17z"/>
<path d="M647 525 c-48 -17 -55 -24 -37 -35 25 -16 65 -11 120 13 l54 24 -40
6 c-51 9 -52 9 -97 -8z m53 -5 c0 -5 -2 -10 -4 -10 -3 0 -8 5 -11 10 -3 6 -1
10 4 10 6 0 11 -4 11 -10z"/>
<path d="M380 386 c0 -2 7 -9 15 -16 13 -11 14 -10 9 4 -5 14 -24 23 -24 12z"/>
<path d="M408 263 c-25 -3 -38 -9 -38 -19 0 -8 -5 -14 -11 -14 -5 0 -7 -4 -4
-10 3 -5 15 -10 26 -10 10 0 19 5 19 10 0 12 67 12 95 0 21 -9 8 -14 -27 -11
-10 1 -18 -3 -18 -10 0 -8 16 -10 56 -6 59 6 100 27 53 27 -13 0 -44 11 -68
25 -23 14 -44 24 -45 23 0 -1 -18 -3 -38 -5z"/>
</g>
</svg>
